HIERARCHY
ROOT hips
{
  OFFSET 0 9.313263304106702 1.2146308026317778
  CHANNELS 6 Xposition Yposition Zposition Yrotation Xrotation Zrotation
  JOINT spine
  {
    OFFSET -6.402521e-31 0.5173342420023708 0
    CHANNELS 3 Yrotation Xrotation Zrotation
    JOINT chest
    {
      OFFSET 0 1.130544299341115 0
      CHANNELS 3 Yrotation Xrotation Zrotation
      JOINT upperChest
      {
        OFFSET 0 1.0863555061129995 0
        CHANNELS 3 Yrotation Xrotation Zrotation
        JOINT neck
        {
          OFFSET 0 1.3773706506454462 0
          CHANNELS 3 Yrotation Xrotation Zrotation
          JOINT head
          {
            OFFSET 0 0.7374408940073979 0
            CHANNELS 3 Yrotation Xrotation Zrotation
            JOINT leftEye
            {
              OFFSET 0.25066580148932727 0.6408406698778757 0.15963719178883284
              CHANNELS 3 Yrotation Xrotation Zrotation
              End Site
              {
                OFFSET 0.25066580148932727 0.6408406698778757 0.15963719178883284
              }
            }
            JOINT rightEye
            {
              OFFSET -0.25066576739704244 0.6408406384191823 0.15963727561643756
              CHANNELS 3 Yrotation Xrotation Zrotation
              End Site
              {
                OFFSET -0.25066576739704244 0.6408406384191823 0.15963727561643756
              }
            }
          }
        }
        JOINT leftShoulder
        {
          OFFSET 0.3761817444281191 1.0539491987447769 0
          CHANNELS 3 Yrotation Xrotation Zrotation
          JOINT leftUpperArm
          {
            OFFSET 0.8702844380000002 0 0
            CHANNELS 3 Yrotation Xrotation Zrotation
            JOINT leftLowerArm
            {
              OFFSET 2.198527310000323 0 0
              CHANNELS 3 Yrotation Xrotation Zrotation
              JOINT leftHand
              {
                OFFSET 2.146852313968281 0 0
                CHANNELS 3 Yrotation Xrotation Zrotation
                JOINT leftIndexProximal
                {
                  OFFSET 0.6585177834681599 0.07380250427007962 0.18382213159631788
                  CHANNELS 3 Yrotation Xrotation Zrotation
                  JOINT leftIndexIntermediate
                  {
                    OFFSET 0.3323021288626682 -0.009606893929485771 -0.012820872253340998
                    CHANNELS 3 Yrotation Xrotation Zrotation
                    JOINT leftIndexDistal
                    {
                      OFFSET 0.2045908926985518 -0.0071133989147997845 -0.006828784783599051
                      CHANNELS 3 Yrotation Xrotation Zrotation
                      End Site
                      {
                        OFFSET 0.2045908926985518 -0.0071133989147997845 -0.006828784783599051
                      }
                    }
                  }
                }
                JOINT leftLittleProximal
                {
                  OFFSET 0.6110054258835662 0.07380246363125398 -0.29175655876064077
                  CHANNELS 3 Yrotation Xrotation Zrotation
                  JOINT leftLittleIntermediate
                  {
                    OFFSET 0.3144281999999998 -2.5124724523095665e-9 1.8658118799974588e-7
                    CHANNELS 3 Yrotation Xrotation Zrotation
                    JOINT leftLittleDistal
                    {
                      OFFSET 0.18116185580251631 0.002815456192251098 0.0034826415518049436
                      CHANNELS 3 Yrotation Xrotation Zrotation
                      End Site
                      {
                        OFFSET 0.18116185580251631 0.002815456192251098 0.0034826415518049436
                      }
                    }
                  }
                }
                JOINT leftMiddleProximal
                {
                  OFFSET 0.6637478005691111 0.07380246480054087 0.02046981859247815
                  CHANNELS 3 Yrotation Xrotation Zrotation
                  JOINT leftMiddleIntermediate
                  {
                    OFFSET 0.3705733999999994 -2.9611069152224445e-9 9.35054791928458e-8
                    CHANNELS 3 Yrotation Xrotation Zrotation
                    JOINT leftMiddleDistal
                    {
                      OFFSET 0.22861063500000056 -1.82673876025774e-9 -1.6740782024515788e-7
                      CHANNELS 3 Yrotation Xrotation Zrotation
                      End Site
                      {
                        OFFSET 0.22861063500000056 -1.82673876025774e-9 -1.6740782024515788e-7
                      }
                    }
                  }
                }
                JOINT leftRingProximal
                {
                  OFFSET 0.6561845547265777 0.07380246406440083 -0.13588087571513918
                  CHANNELS 3 Yrotation Xrotation Zrotation
                  JOINT leftRingIntermediate
                  {
                    OFFSET 0.3437531000000005 -2.746796123886952e-9 1.4935781944558357e-7
                    CHANNELS 3 Yrotation Xrotation Zrotation
                    JOINT leftRingDistal
                    {
                      OFFSET 0.1983118991198174 -0.002467117924596085 -0.004538141969590015
                      CHANNELS 3 Yrotation Xrotation Zrotation
                      End Site
                      {
                        OFFSET 0.1983118991198174 -0.002467117924596085 -0.004538141969590015
                      }
                    }
                  }
                }
                JOINT leftThumbProximal
                {
                  OFFSET 0.09767004258864787 -0.14930060425447422 -0.07008212897521154
                  CHANNELS 3 Yrotation Xrotation Zrotation
                  JOINT leftThumbIntermediate
                  {
                    OFFSET 0.36682123028154767 -0.015768465060082004 0.28693641268151077
                    CHANNELS 3 Yrotation Xrotation Zrotation
                    JOINT leftThumbDistal
                    {
                      OFFSET 0.21091084272403915 -0.016756648201192714 0.1933767059105508
                      CHANNELS 3 Yrotation Xrotation Zrotation
                      End Site
                      {
                        OFFSET 0.21091084272403915 -0.016756648201192714 0.1933767059105508
                      }
                    }
                  }
                }
              }
            }
          }
        }
        JOINT rightShoulder
        {
          OFFSET -0.37618174442811925 1.0539491987447769 0
          CHANNELS 3 Yrotation Xrotation Zrotation
          JOINT rightUpperArm
          {
            OFFSET -0.870284438 0 0
            CHANNELS 3 Yrotation Xrotation Zrotation
            JOINT rightLowerArm
            {
              OFFSET -2.1985273100003235 0 0
              CHANNELS 3 Yrotation Xrotation Zrotation
              JOINT rightHand
              {
                OFFSET -2.1468523139682802 0 0
                CHANNELS 3 Yrotation Xrotation Zrotation
                JOINT rightIndexProximal
                {
                  OFFSET -0.6585177834681599 0.07380250427007962 0.18382213159631788
                  CHANNELS 3 Yrotation Xrotation Zrotation
                  JOINT rightIndexIntermediate
                  {
                    OFFSET -0.3323021288626682 -0.009606893929485771 -0.012820872253340998
                    CHANNELS 3 Yrotation Xrotation Zrotation
                    JOINT rightIndexDistal
                    {
                      OFFSET -0.2045908926985518 -0.0071133989147997845 -0.006828784783599051
                      CHANNELS 3 Yrotation Xrotation Zrotation
                      End Site
                      {
                        OFFSET -0.2045908926985518 -0.0071133989147997845 -0.006828784783599051
                      }
                    }
                  }
                }
                JOINT rightLittleProximal
                {
                  OFFSET -0.6110054258835662 0.07380246363125398 -0.29175655876064077
                  CHANNELS 3 Yrotation Xrotation Zrotation
                  JOINT rightLittleIntermediate
                  {
                    OFFSET -0.3144281999999998 -2.5124724523095665e-9 1.8658118799974588e-7
                    CHANNELS 3 Yrotation Xrotation Zrotation
                    JOINT rightLittleDistal
                    {
                      OFFSET -0.18116185580251631 0.002815456192251098 0.0034826415518049436
                      CHANNELS 3 Yrotation Xrotation Zrotation
                      End Site
                      {
                        OFFSET -0.18116185580251631 0.002815456192251098 0.0034826415518049436
                      }
                    }
                  }
                }
                JOINT rightMiddleProximal
                {
                  OFFSET -0.6637478005691111 0.07380246480054087 0.02046981859247815
                  CHANNELS 3 Yrotation Xrotation Zrotation
                  JOINT rightMiddleIntermediate
                  {
                    OFFSET -0.3705733999999994 -2.9611069152224445e-9 9.35054791928458e-8
                    CHANNELS 3 Yrotation Xrotation Zrotation
                    JOINT rightMiddleDistal
                    {
                      OFFSET -0.22861063500000056 -1.82673876025774e-9 -1.6740782024515788e-7
                      CHANNELS 3 Yrotation Xrotation Zrotation
                      End Site
                      {
                        OFFSET -0.22861063500000056 -1.82673876025774e-9 -1.6740782024515788e-7
                      }
                    }
                  }
                }
                JOINT rightRingProximal
                {
                  OFFSET -0.6561845547265777 0.07380246406440083 -0.13588087571513918
                  CHANNELS 3 Yrotation Xrotation Zrotation
                  JOINT rightRingIntermediate
                  {
                    OFFSET -0.3437531000000005 -2.746796123886952e-9 1.4935781944558357e-7
                    CHANNELS 3 Yrotation Xrotation Zrotation
                    JOINT rightRingDistal
                    {
                      OFFSET -0.1983118991198174 -0.002467117924596085 -0.004538141969590015
                      CHANNELS 3 Yrotation Xrotation Zrotation
                      End Site
                      {
                        OFFSET -0.1983118991198174 -0.002467117924596085 -0.004538141969590015
                      }
                    }
                  }
                }
                JOINT rightThumbProximal
                {
                  OFFSET -0.09767004258864787 -0.14930060425447422 -0.07008212897521154
                  CHANNELS 3 Yrotation Xrotation Zrotation
                  JOINT rightThumbIntermediate
                  {
                    OFFSET -0.36682123028154767 -0.015768465060082004 0.28693641268151077
                    CHANNELS 3 Yrotation Xrotation Zrotation
                    JOINT rightThumbDistal
                    {
                      OFFSET -0.21091084272403915 -0.016756648201192714 0.1933767059105508
                      CHANNELS 3 Yrotation Xrotation Zrotation
                      End Site
                      {
                        OFFSET -0.21091084272403915 -0.016756648201192714 0.1933767059105508
                      }
                    }
                  }
                }
              }
            }
          }
        }
      }
    }
  }
  JOINT leftUpperLeg
  {
    OFFSET 0.7715603 -0.3993844658041501 0
    CHANNELS 3 Yrotation Xrotation Zrotation
    JOINT leftLowerLeg
    {
      OFFSET 0 -3.529830000249343 0
      CHANNELS 3 Yrotation Xrotation Zrotation
      JOINT leftFoot
      {
        OFFSET 0 -4.154939295409685 0.004208579085223096
        CHANNELS 3 Yrotation Xrotation Zrotation
        JOINT leftToes
        {
          OFFSET 0 -0.6353414391261847 1.10414981190622
          CHANNELS 3 Yrotation Xrotation Zrotation
          End Site
          {
            OFFSET 0 -0.6015820691747853 1.10414981190622
          }
        }
      }
    }
  }
  JOINT rightUpperLeg
  {
    OFFSET -0.7715603 -0.3993844658041501 0
    CHANNELS 3 Yrotation Xrotation Zrotation
    JOINT rightLowerLeg
    {
      OFFSET 0 -3.529830000249343 0
      CHANNELS 3 Yrotation Xrotation Zrotation
      JOINT rightFoot
      {
        OFFSET 0 -4.154939295409685 0.004208579085223096
        CHANNELS 3 Yrotation Xrotation Zrotation
        JOINT rightToes
        {
          OFFSET 0 -0.6353414391261847 1.10414981190622
          CHANNELS 3 Yrotation Xrotation Zrotation
          End Site
          {
            OFFSET 0 -0.6015820691747853 1.10414981190622
          }
        }
      }
    }
  }
}
MOTION
Frames: 4
Frame Time: 0.03333333333333333
0.622578425840898 8.82336529818448 1.5184716836759922 23.51025740235414 -1.1416777418996862 -3.733654836364842 1.9682320250836645 1.696921164988701 3.3604503880280134 14.307721540628037 1.8190184475854478 11.591575974954383 0 0 0 1.423538203661501 5.725311965288721 -1.8729507468777227 24.787092404819713 31.132090799468134 -3.527037811979864 0 0 0 0 0 0 -12.780401939752881 0.34075934612237097 -12.664039559415167 -33.254214997186516 -9.087859370412195 -22.35784080578094 -119.54052289214025 -0.0000570866155076948 0.00010670879547731836 -14.8441541286837 -29.998783464991423 38.23606887863395 7.811196458490903 1.8250164651896907 -42.60357522642183 5.5671129756226385 2.523656435142987 -55.32510866052637 3.9511360548684222 1.5316123083234077 -44.97248276497789 18.362684783060608 8.201508060977098 -70.00206411271395 5.711446938707823 4.515850433337081 -80.29912989965894 5.346902862454 2.9449229631430143 -55.26935441508288 10.913228347539471 3.4576352616032997 -50.41989838848544 6.221952891793419 3.535418180639692 -68.16262598688122 4.42146542198029 1.9552611590075577 -47.06548252661354 12.285442482228618 6.156467172966773 -61.07142176121986 5.446282721354327 4.785497886010852 -75.03406300983826 4.354344736408791 2.835059646021538 -54.07386964310228 0.21223433357783342 18.639553607343373 11.135299121680431 31.896633039057658 0.8128310350226845 -2.731583579054628 8.678210661541998 1.7973254237755212 -0.18778024744066105 6.799658977769451 1.3784435880222297 -0.12825451955673944 43.69416334709737 -17.044341826703683 19.762419241528804 138.81668222174045 0.0000026290829361321747 -0.00001514272159841976 -22.42197105521396 -22.023605524233016 -5.593525321412072 -4.694378221743556 0.34159328431614144 7.816062730661243 -2.79514615916193 0.3828994663287031 20.547199914777035 -0.22653660774089832 -0.19321417150546458 13.844674457165342 -16.05160501254966 5.330359085647959 35.39922700461172 -4.029215009108307 1.2637526692719823 45.55316728958271 -0.3128992265880852 -0.7653051120896255 22.133123979387776 -8.823748959193022 0.9163674273639975 15.675691394876527 -3.9036831410945627 0.8966403324556473 33.36860865158771 -1.7267623628211493 0.21577392323945582 15.89997737788114 -11.665695914623111 2.4928498740274527 26.380475846870702 -3.9138008339659462 1.7131027508208945 40.1196730838881 0.022704936152714898 -0.15163883429448305 17.82063148390418 1.9229624712727371 19.396898724515854 -11.109667431068031 -31.00769279526128 2.6300052315645335 7.164088818140295 -7.872393602400169 1.0772040341149758 1.174739778467683 11.121798934882086 -20.0595321383944 4.259900016290331 -3.335313149551241 24.530038539215365 0.15374257260427968 -2.924638981119207 -1.8985590140008584 -0.3848197415053931 0.000005449321397910188 -2.73384116409114 0.000004108998767380725 -6.51612663556874 0.30515882018417373 7.811516835473644 -8.679493862066836 12.384729758699233 -0.692041954217542 -16.72733301886315 -12.329053705843757 -1.2345298259645126 0.0000041712106121146975 -1.1664484990951427 1.255133339568006e-7
0.6092176112261685 8.82501948963512 1.5060654103543203 22.745215182181425 -1.2163474165851813 -3.84327665623621 1.9110123916884323 1.7137247896001373 3.379720065444863 14.09175066971767 1.899962535134969 11.645993651272084 0 0 0 1.5688171390392767 5.790363465808705 -1.7842130063113069 25.79638902680894 31.045115267564647 -3.0070540974535733 0 0 0 0 0 0 -13.020337683372368 0.3290817375885246 -12.727370142978709 -33.04662153363739 -9.268095019831255 -22.68965507696476 -119.89279603901404 -0.0000729922794031172 0.0001116852551940953 -16.041886906849143 -28.618998265245565 39.09025032532874 7.762007118818204 1.7812805296217713 -41.95258161406693 5.529342559492072 2.4695894149495516 -54.67420048381173 3.9023331958362935 1.4868641672440743 -44.321234837323644 18.341479883907752 8.13992519949953 -69.35232578785148 5.696873610062647 4.451925699223375 -79.64799801048468 5.314472507697811 2.8874875865076226 -54.618468490636616 10.883768526561228 3.3962514399548827 -49.76939610113693 6.196158968044915 3.4755509727703746 -67.51259680919154 4.3781388854195535 1.9064676099537436 -46.41433747827266 12.286565128881788 6.079632173853762 -60.42159179744955 5.435251897939842 4.720866069807259 -74.37974676367837 4.321245460672813 2.779333560628618 -53.42289829035363 0.21223033599203966 18.639548201135106 11.135309730540929 31.896633039057658 0.8128310350226845 -2.731583579054628 8.678210661541998 1.7973254237755212 -0.18778024744066105 6.198988993771912 1.3796710297196155 -1.14304731621447 44.071220027859134 -17.321178338811638 17.16587217050251 139.35465919701176 0.000007484866810536237 -0.000005509614316938099 -25.23029878035109 -25.601319954807682 -3.2215184367466834 -4.69437651989408 0.34159584568260176 7.816077110228368 -2.7951332009668897 0.3829055496017755 20.547190721351043 -0.22653946254052576 -0.19321350449101085 13.844671970241794 -16.051600068242827 5.330357799425368 35.399217439191986 -4.029212879431756 1.2637439159629862 45.55315762833645 -0.31290592387278043 -0.7652998288939069 22.133140789706598 -8.82374337260389 0.9163581413879733 15.675697971867832 -3.903689530322817 0.8966330744909367 33.36858402236204 -1.7267479655973983 0.21579745554247204 15.899982304572841 -11.665686708391263 2.4928453874699965 26.38047737804854 -3.9137987035573962 1.7131064877508222 40.11967789820334 0.022694529083289488 -0.1516359661385954 17.82062068500999 1.745820326192101 19.342660344693915 -11.144424982168326 -31.092720725396624 2.46056008707634 6.755120667039029 -7.856316296697822 1.1290496579566291 1.1594440167346651 11.159731577188184 -20.021260736205612 4.48896608085159 -3.379096373522763 24.453212010678296 0.17819205665129276 -2.2382064964197346 -1.8144828430745936 -0.5729583647004499 -0.000014435604598068204 -2.730241404805202 -0.0000019191309964912306 -6.355499018035693 0.3551051957200154 7.824910788840202 -8.672967559627564 12.208232851760338 -0.4768252047201921 -16.03887972348149 -12.154224618913048 -1.4561328592824467 7.413038382062652e-7 -1.1050441311002992 0.000001641123838662304
0.5960567972876808 8.824821818958627 1.4954132746353679 21.80595262104917 -1.3330476868849983 -3.97296621879023 1.8118501092746877 1.7239474589905455 3.3981140742611897 13.69950096426506 1.9728989586979377 11.678948922207342 0 0 0 1.708705798041989 5.82488026200315 -1.6663758095163301 26.80309763460719 30.81577052301621 -2.4656201791679195 0 0 0 0 0 0 -13.270445160477257 0.32285909442186445 -12.720761050292035 -32.62903038797232 -9.55286010913199 -23.111288749247503 -120.24509362051778 -0.00006374183814090734 0.00010938839356044713 -17.336107560927868 -27.07698741938976 40.12521856833875 7.717848586286917 1.742879375057952 -41.37328015320811 5.495176501638011 2.4218594762606966 -54.09500428106267 3.8585073159377616 1.447491119245794 -43.741736968757145 18.32193573219107 8.085442811658648 -68.77421841205347 5.6832892755547295 4.395134684295841 -79.06851823752862 5.285077921271795 2.836684232373696 -54.03928239340955 10.858099348585915 3.343161221488325 -49.19037414974003 6.172641840917102 3.422565855040472 -66.93468549397006 4.339138042739193 1.863450638874959 -45.834968573747105 12.28705606303924 6.011587044047634 -59.84339054564353 5.424768067620855 4.663481156883584 -73.79751365163719 4.291264855146373 2.7300595580564573 -52.84372302361145 0.21223181424192966 18.639546399065722 11.135307962397565 31.896633039057658 0.8128310350226845 -2.731583579054628 8.678210661541998 1.7973254237755212 -0.18778024744066105 5.409810231297469 1.3553700857384774 -2.2461118476162762 44.466825621311 -17.829381292485213 14.536023722200191 139.8848565472679 0.000004411200343252837 -0.000007423708967788249 -28.319031206391564 -29.58469741351125 -0.33607166467507554 -4.694378647205923 0.34157927684332373 7.816067805802695 -2.795142368318743 0.3829125933916542 20.547203112686226 -0.22653060465756597 -0.19320123142506698 13.844674457165342 -16.05161090524175 5.3303646592792155 35.39923178732178 -4.02919286047163 1.2637461576640676 45.55317212020583 -0.3129251885721348 -0.7653200544613901 22.13311478329799 -8.823747271638874 0.9163659330690036 15.675693039124392 -3.9036835670431165 0.8966494049115559 33.368601068049514 -1.7267559623809976 0.2157895180593077 15.899972451189198 -11.665690056112005 2.492837268937495 26.380480440404092 -3.9138067991098286 1.7131111856055992 40.119665656881416 0.022704072370955244 -0.1516232795513946 17.820639031551412 1.569348239968564 19.287862881617325 -11.17300030791784 -31.1722176417205 2.296616328367025 6.361110122954846 -7.840800049537819 1.1790562541826484 1.1447439284216978 11.298353864370982 -19.885744318158956 4.808820663160258 -3.4307215419604122 24.346049465080387 0.13595180197756287 -1.5356878612492089 -1.9485912376455494 -0.8163095834333681 0.000003684421624367128 -2.485330638821962 0.0000016640841545451917 -6.266131140522057 0.5111174118042988 7.747454999803254 -8.579798002876542 12.009781844601152 -0.1253539705967587 -15.125548829521705 -11.990505870973903 -1.5043443819147408 -0.000006100573461519195 -0.9373601993104397 -0.0000013800033250546072
0.5840088020671498 8.821101622147992 1.4876266322139922 20.717282070047954 -1.4685691840848485 -4.137287127164788 1.6820088743095354 1.7205448078563623 3.4088891336776377 13.158998926822898 1.9980280103932253 11.724925735497653 0 0 0 1.8533021277898731 5.85181781175576 -1.540675612357076 27.80086214316014 30.438922337650936 -1.8494008856998543 0 0 0 0 0 0 -13.479020028474265 0.31766350713325375 -12.715632393754095 -31.95279698199796 -9.867755392716695 -23.60570571786894 -120.63737480825877 -0.000054713588291413525 0.00010840228604123426 -18.430345452238406 -25.40141059137792 41.060577859061326 7.672956805984104 1.7046507948710623 -40.78989839140323 5.460305560979971 2.374122246871503 -53.5117239517987 3.813967919118207 1.4082925503553902 -43.15812037214694 18.301688442075505 8.030729807293488 -68.19210950165632 5.669016636441126 4.338118098658838 -78.48489133461581 5.254962237255586 2.785833960128835 -53.45600993565439 10.832474742958714 3.2908108308992614 -48.60719385343729 6.148425433733032 3.3694459719800496 -66.35276037001233 4.299403869449353 1.8205628492552188 -45.25147601134955 12.287321206310526 5.943783046500316 -59.26111627240741 5.413643410009519 4.605771164120989 -73.21124997062249 4.260578693574358 2.68073693454459 -52.260541371495606 0.21223836004921293 18.639557211482312 11.135305310182481 31.896633039057658 0.8128310350226845 -2.731583579054628 8.678210661541998 1.7973254237755212 -0.18778024744066105 4.6113393546855255 1.3157910860788888 -3.3472190948224543 44.62873424550281 -18.5606340654494 12.00863475071756 140.47601330902762 -0.0000018589622544463124 -2.440050816082694e-7 -31.787644028525833 -33.05562224773068 2.676075290677745 -4.69436432744956 0.34158511996055374 7.816086033236465 -2.7951497834639785 0.38291149946974085 20.547201513731647 -0.22652106626358542 -0.19320131146680136 13.84468024821723 -16.051598420140493 5.330361658093148 35.39923737903236 -4.029211175690506 1.2637453036827029 45.55315279771331 -0.3129049899884609 -0.7652853668127308 22.133110037714825 -8.823739997495679 0.9163558999454884 15.675708760204136 -3.9037021153577665 0.8966533540982526 33.36858116989787 -1.7267537259932417 0.2157794861478186 15.899982304572841 -11.665702464323894 2.4928334233168536 26.380494196381044 -3.9137871993510376 1.7131012560489254 40.11967789820334 0.022695898127352745 -0.15162335959295423 17.820637405927865 1.3945411320497345 19.232866734879604 -11.195890576032603 -31.246208368678342 2.138676436079696 5.982937744151597 -7.82636771417523 1.2274236995837113 1.1327996825477256 11.471392854530327 -19.664740202321187 5.1932825994809715 -3.482066940545031 24.22630790319234 0.10704476784396531 -0.7462325497165663 -2.4163064929960116 -1.1901117233657323 -0.000003851457450125305 -1.9422502344721444 -0.000003854219656779364 -6.2047294415558865 0.6922699092352681 7.616613271356271 -8.452402664698857 11.906022554259375 0.30086183714136916 -14.018756756696156 -11.89084768507874 -1.315307005270016 0.000008269105943140653 -0.6665448076141479 -8.407131507259971e-7
